<svg width="655" height="303" viewBox="0 0 655 303" fill="none" xmlns="http://www.w3.org/2000/svg">
<path d="M4.5845 41H3.5645V34.904H1.3565V34.088C1.6445 34.088 1.9245 34.068 2.1965 34.028C2.4685 33.98 2.7125 33.896 2.9285 33.776C3.1525 33.656 3.3405 33.492 3.4925 33.284C3.6445 33.076 3.7485 32.812 3.8045 32.492H4.5845V41ZM7.97647 39.668H9.30847V40.88C9.30847 41.336 9.20447 41.728 8.99647 42.056C8.78847 42.384 8.45247 42.616 7.98847 42.752V42.152C8.12447 42.104 8.23647 42.032 8.32447 41.936C8.42047 41.848 8.49647 41.748 8.55247 41.636C8.60847 41.532 8.64447 41.424 8.66047 41.312C8.68447 41.2 8.69247 41.096 8.68447 41H7.97647V39.668ZM11.9043 36.812C11.9043 37.132 11.9123 37.492 11.9283 37.892C11.9523 38.284 12.0163 38.656 12.1203 39.008C12.2323 39.352 12.4083 39.644 12.6483 39.884C12.8883 40.124 13.2243 40.244 13.6563 40.244C14.0883 40.244 14.4243 40.124 14.6643 39.884C14.9043 39.644 15.0763 39.352 15.1803 39.008C15.2923 38.656 15.3563 38.284 15.3723 37.892C15.3963 37.492 15.4083 37.132 15.4083 36.812C15.4083 36.604 15.4043 36.376 15.3963 36.128C15.3963 35.872 15.3763 35.62 15.3363 35.372C15.3043 35.116 15.2523 34.868 15.1803 34.628C15.1163 34.388 15.0163 34.18 14.8803 34.004C14.7523 33.82 14.5883 33.672 14.3883 33.56C14.1883 33.448 13.9443 33.392 13.6563 33.392C13.3683 33.392 13.1243 33.448 12.9243 33.56C12.7243 33.672 12.5563 33.82 12.4203 34.004C12.2923 34.18 12.1923 34.388 12.1203 34.628C12.0563 34.868 12.0043 35.116 11.9643 35.372C11.9323 35.62 11.9123 35.872 11.9043 36.128C11.9043 36.376 11.9043 36.604 11.9043 36.812ZM10.8243 36.824C10.8243 36.512 10.8323 36.188 10.8483 35.852C10.8643 35.516 10.9043 35.188 10.9683 34.868C11.0323 34.548 11.1243 34.244 11.2443 33.956C11.3643 33.668 11.5283 33.416 11.7363 33.2C11.9443 32.984 12.2043 32.812 12.5163 32.684C12.8363 32.556 13.2163 32.492 13.6563 32.492C14.0963 32.492 14.4723 32.556 14.7843 32.684C15.1043 32.812 15.3683 32.984 15.5763 33.2C15.7843 33.416 15.9483 33.668 16.0683 33.956C16.1883 34.244 16.2803 34.548 16.3443 34.868C16.4083 35.188 16.4483 35.516 16.4643 35.852C16.4803 36.188 16.4883 36.512 16.4883 36.824C16.4883 37.136 16.4803 37.46 16.4643 37.796C16.4483 38.132 16.4083 38.46 16.3443 38.78C16.2803 39.1 16.1883 39.404 16.0683 39.692C15.9483 39.972 15.7843 40.22 15.5763 40.436C15.3683 40.652 15.1083 40.824 14.7963 40.952C14.4843 41.072 14.1043 41.132 13.6563 41.132C13.2163 41.132 12.8363 41.072 12.5163 40.952C12.2043 40.824 11.9443 40.652 11.7363 40.436C11.5283 40.22 11.3643 39.972 11.2443 39.692C11.1243 39.404 11.0323 39.1 10.9683 38.78C10.9043 38.46 10.8643 38.132 10.8483 37.796C10.8323 37.46 10.8243 37.136 10.8243 36.824ZM18.5723 36.812C18.5723 37.132 18.5803 37.492 18.5963 37.892C18.6203 38.284 18.6843 38.656 18.7883 39.008C18.9003 39.352 19.0763 39.644 19.3163 39.884C19.5563 40.124 19.8923 40.244 20.3243 40.244C20.7563 40.244 21.0923 40.124 21.3323 39.884C21.5723 39.644 21.7443 39.352 21.8483 39.008C21.9603 38.656 22.0243 38.284 22.0403 37.892C22.0643 37.492 22.0763 37.132 22.0763 36.812C22.0763 36.604 22.0723 36.376 22.0643 36.128C22.0643 35.872 22.0443 35.62 22.0043 35.372C21.9723 35.116 21.9203 34.868 21.8483 34.628C21.7843 34.388 21.6843 34.18 21.5483 34.004C21.4203 33.82 21.2563 33.672 21.0563 33.56C20.8563 33.448 20.6123 33.392 20.3243 33.392C20.0363 33.392 19.7923 33.448 19.5923 33.56C19.3923 33.672 19.2243 33.82 19.0883 34.004C18.9603 34.18 18.8603 34.388 18.7883 34.628C18.7243 34.868 18.6723 35.116 18.6323 35.372C18.6003 35.62 18.5803 35.872 18.5723 36.128C18.5723 36.376 18.5723 36.604 18.5723 36.812ZM17.4923 36.824C17.4923 36.512 17.5003 36.188 17.5163 35.852C17.5323 35.516 17.5723 35.188 17.6363 34.868C17.7003 34.548 17.7923 34.244 17.9123 33.956C18.0323 33.668 18.1963 33.416 18.4043 33.2C18.6123 32.984 18.8723 32.812 19.1843 32.684C19.5043 32.556 19.8843 32.492 20.3243 32.492C20.7643 32.492 21.1403 32.556 21.4523 32.684C21.7723 32.812 22.0363 32.984 22.2443 33.2C22.4523 33.416 22.6163 33.668 22.7363 33.956C22.8563 34.244 22.9483 34.548 23.0123 34.868C23.0763 35.188 23.1163 35.516 23.1323 35.852C23.1483 36.188 23.1563 36.512 23.1563 36.824C23.1563 37.136 23.1483 37.46 23.1323 37.796C23.1163 38.132 23.0763 38.46 23.0123 38.78C22.9483 39.1 22.8563 39.404 22.7363 39.692C22.6163 39.972 22.4523 40.22 22.2443 40.436C22.0363 40.652 21.7763 40.824 21.4643 40.952C21.1523 41.072 20.7723 41.132 20.3243 41.132C19.8843 41.132 19.5043 41.072 19.1843 40.952C18.8723 40.824 18.6123 40.652 18.4043 40.436C18.1963 40.22 18.0323 39.972 17.9123 39.692C17.7923 39.404 17.7003 39.1 17.6363 38.78C17.5723 38.46 17.5323 38.132 17.5163 37.796C17.5003 37.46 17.4923 37.136 17.4923 36.824ZM25.2402 36.812C25.2402 37.132 25.2483 37.492 25.2643 37.892C25.2883 38.284 25.3523 38.656 25.4563 39.008C25.5683 39.352 25.7443 39.644 25.9843 39.884C26.2243 40.124 26.5603 40.244 26.9923 40.244C27.4243 40.244 27.7603 40.124 28.0003 39.884C28.2403 39.644 28.4123 39.352 28.5163 39.008C28.6283 38.656 28.6923 38.284 28.7083 37.892C28.7323 37.492 28.7443 37.132 28.7443 36.812C28.7443 36.604 28.7403 36.376 28.7323 36.128C28.7323 35.872 28.7123 35.62 28.6723 35.372C28.6403 35.116 28.5883 34.868 28.5163 34.628C28.4523 34.388 28.3523 34.18 28.2163 34.004C28.0883 33.82 27.9243 33.672 27.7243 33.56C27.5243 33.448 27.2803 33.392 26.9923 33.392C26.7043 33.392 26.4603 33.448 26.2603 33.56C26.0603 33.672 25.8923 33.82 25.7563 34.004C25.6283 34.18 25.5283 34.388 25.4563 34.628C25.3923 34.868 25.3403 35.116 25.3003 35.372C25.2683 35.62 25.2483 35.872 25.2402 36.128C25.2402 36.376 25.2402 36.604 25.2402 36.812ZM24.1603 36.824C24.1603 36.512 24.1683 36.188 24.1843 35.852C24.2003 35.516 24.2403 35.188 24.3043 34.868C24.3683 34.548 24.4603 34.244 24.5803 33.956C24.7003 33.668 24.8643 33.416 25.0723 33.2C25.2803 32.984 25.5403 32.812 25.8523 32.684C26.1723 32.556 26.5523 32.492 26.9923 32.492C27.4323 32.492 27.8083 32.556 28.1203 32.684C28.4403 32.812 28.7043 32.984 28.9123 33.2C29.1203 33.416 29.2843 33.668 29.4043 33.956C29.5243 34.244 29.6163 34.548 29.6803 34.868C29.7443 35.188 29.7843 35.516 29.8003 35.852C29.8163 36.188 29.8242 36.512 29.8242 36.824C29.8242 37.136 29.8163 37.46 29.8003 37.796C29.7843 38.132 29.7443 38.46 29.6803 38.78C29.6163 39.1 29.5243 39.404 29.4043 39.692C29.2843 39.972 29.1203 40.22 28.9123 40.436C28.7043 40.652 28.4443 40.824 28.1323 40.952C27.8203 41.072 27.4403 41.132 26.9923 41.132C26.5523 41.132 26.1723 41.072 25.8523 40.952C25.5403 40.824 25.2803 40.652 25.0723 40.436C24.8643 40.22 24.7003 39.972 24.5803 39.692C24.4603 39.404 24.3683 39.1 24.3043 38.78C24.2403 38.46 24.2003 38.132 24.1843 37.796C24.1683 37.46 24.1603 37.136 24.1603 36.824ZM31.3202 39.668H32.6522V41H31.3202V39.668ZM35.2481 36.812C35.2481 37.132 35.2561 37.492 35.2721 37.892C35.2961 38.284 35.3601 38.656 35.4641 39.008C35.5761 39.352 35.7521 39.644 35.9921 39.884C36.2321 40.124 36.5681 40.244 37.0001 40.244C37.4321 40.244 37.7681 40.124 38.0081 39.884C38.2481 39.644 38.4201 39.352 38.5241 39.008C38.6361 38.656 38.7001 38.284 38.7161 37.892C38.7401 37.492 38.7521 37.132 38.7521 36.812C38.7521 36.604 38.7481 36.376 38.7401 36.128C38.7401 35.872 38.7201 35.62 38.6801 35.372C38.6481 35.116 38.5961 34.868 38.5241 34.628C38.4601 34.388 38.3601 34.18 38.2241 34.004C38.0961 33.82 37.9321 33.672 37.7321 33.56C37.5321 33.448 37.2881 33.392 37.0001 33.392C36.7121 33.392 36.4681 33.448 36.2681 33.56C36.0681 33.672 35.9001 33.82 35.7641 34.004C35.6361 34.18 35.5361 34.388 35.4641 34.628C35.4001 34.868 35.3481 35.116 35.3081 35.372C35.2761 35.62 35.2561 35.872 35.2481 36.128C35.2481 36.376 35.2481 36.604 35.2481 36.812ZM34.1681 36.824C34.1681 36.512 34.1761 36.188 34.1921 35.852C34.2081 35.516 34.2481 35.188 34.3121 34.868C34.3761 34.548 34.4681 34.244 34.5881 33.956C34.7081 33.668 34.8721 33.416 35.0801 33.2C35.2881 32.984 35.5481 32.812 35.8601 32.684C36.1801 32.556 36.5601 32.492 37.0001 32.492C37.4401 32.492 37.8161 32.556 38.1281 32.684C38.4481 32.812 38.7121 32.984 38.9201 33.2C39.1281 33.416 39.2921 33.668 39.4121 33.956C39.5321 34.244 39.6241 34.548 39.6881 34.868C39.7521 35.188 39.7921 35.516 39.8081 35.852C39.8241 36.188 39.8321 36.512 39.8321 36.824C39.8321 37.136 39.8241 37.46 39.8081 37.796C39.7921 38.132 39.7521 38.46 39.6881 38.78C39.6241 39.1 39.5321 39.404 39.4121 39.692C39.2921 39.972 39.1281 40.22 38.9201 40.436C38.7121 40.652 38.4521 40.824 38.1401 40.952C37.8281 41.072 37.4481 41.132 37.0001 41.132C36.5601 41.132 36.1801 41.072 35.8601 40.952C35.5481 40.824 35.2881 40.652 35.0801 40.436C34.8721 40.22 34.7081 39.972 34.5881 39.692C34.4681 39.404 34.3761 39.1 34.3121 38.78C34.2481 38.46 34.2081 38.132 34.1921 37.796C34.1761 37.46 34.1681 37.136 34.1681 36.824ZM41.916 36.812C41.916 37.132 41.924 37.492 41.94 37.892C41.964 38.284 42.028 38.656 42.132 39.008C42.244 39.352 42.42 39.644 42.66 39.884C42.9 40.124 43.236 40.244 43.668 40.244C44.1 40.244 44.436 40.124 44.676 39.884C44.916 39.644 45.088 39.352 45.192 39.008C45.304 38.656 45.368 38.284 45.384 37.892C45.408 37.492 45.42 37.132 45.42 36.812C45.42 36.604 45.416 36.376 45.408 36.128C45.408 35.872 45.388 35.62 45.348 35.372C45.316 35.116 45.264 34.868 45.192 34.628C45.128 34.388 45.028 34.18 44.892 34.004C44.764 33.82 44.6 33.672 44.4 33.56C44.2 33.448 43.956 33.392 43.668 33.392C43.38 33.392 43.136 33.448 42.936 33.56C42.736 33.672 42.568 33.82 42.432 34.004C42.304 34.18 42.204 34.388 42.132 34.628C42.068 34.868 42.016 35.116 41.976 35.372C41.944 35.62 41.924 35.872 41.916 36.128C41.916 36.376 41.916 36.604 41.916 36.812ZM40.836 36.824C40.836 36.512 40.844 36.188 40.86 35.852C40.876 35.516 40.916 35.188 40.98 34.868C41.044 34.548 41.136 34.244 41.256 33.956C41.376 33.668 41.54 33.416 41.748 33.2C41.956 32.984 42.216 32.812 42.528 32.684C42.848 32.556 43.228 32.492 43.668 32.492C44.108 32.492 44.484 32.556 44.796 32.684C45.116 32.812 45.38 32.984 45.588 33.2C45.796 33.416 45.96 33.668 46.08 33.956C46.2 34.244 46.292 34.548 46.356 34.868C46.42 35.188 46.46 35.516 46.476 35.852C46.492 36.188 46.5 36.512 46.5 36.824C46.5 37.136 46.492 37.46 46.476 37.796C46.46 38.132 46.42 38.46 46.356 38.78C46.292 39.1 46.2 39.404 46.08 39.692C45.96 39.972 45.796 40.22 45.588 40.436C45.38 40.652 45.12 40.824 44.808 40.952C44.496 41.072 44.116 41.132 43.668 41.132C43.228 41.132 42.848 41.072 42.528 40.952C42.216 40.824 41.956 40.652 41.748 40.436C41.54 40.22 41.376 39.972 41.256 39.692C41.136 39.404 41.044 39.1 40.98 38.78C40.916 38.46 40.876 38.132 40.86 37.796C40.844 37.46 40.836 37.136 40.836 36.824Z" fill="#334155"/>
<path d="M55 37H655" stroke="white" stroke-dasharray="4 4"/>
<path d="M12.1803 82.7C12.1803 82.932 12.2203 83.136 12.3003 83.312C12.3803 83.48 12.4883 83.62 12.6243 83.732C12.7603 83.844 12.9203 83.928 13.1043 83.984C13.2883 84.04 13.4843 84.068 13.6923 84.068C14.1003 84.068 14.4363 83.948 14.7003 83.708C14.9643 83.468 15.0963 83.132 15.0963 82.7C15.0963 82.268 14.9603 81.944 14.6883 81.728C14.4243 81.504 14.0843 81.392 13.6683 81.392C13.4683 81.392 13.2763 81.42 13.0923 81.476C12.9083 81.532 12.7483 81.616 12.6123 81.728C12.4843 81.84 12.3803 81.976 12.3003 82.136C12.2203 82.296 12.1803 82.484 12.1803 82.7ZM11.1003 82.664C11.1003 82.312 11.1683 82.004 11.3043 81.74C11.4403 81.468 11.6243 81.24 11.8563 81.056C12.0883 80.872 12.3523 80.732 12.6483 80.636C12.9523 80.54 13.2683 80.492 13.5963 80.492C14.0603 80.492 14.4563 80.556 14.7843 80.684C15.1123 80.804 15.3763 80.968 15.5763 81.176C15.7843 81.376 15.9363 81.608 16.0323 81.872C16.1283 82.128 16.1763 82.392 16.1763 82.664C16.1763 83.048 16.0683 83.4 15.8523 83.72C15.6443 84.032 15.3603 84.268 15.0003 84.428C15.5123 84.588 15.8923 84.852 16.1403 85.22C16.3883 85.58 16.5123 86.024 16.5123 86.552C16.5123 86.968 16.4363 87.336 16.2843 87.656C16.1403 87.976 15.9403 88.248 15.6843 88.472C15.4363 88.688 15.1403 88.852 14.7963 88.964C14.4523 89.076 14.0843 89.132 13.6923 89.132C13.2843 89.132 12.9043 89.08 12.5523 88.976C12.2003 88.872 11.8923 88.712 11.6283 88.496C11.3723 88.28 11.1683 88.012 11.0163 87.692C10.8723 87.364 10.8003 86.984 10.8003 86.552C10.8003 86.048 10.9283 85.612 11.1843 85.244C11.4403 84.868 11.8083 84.596 12.2883 84.428C11.9283 84.284 11.6403 84.052 11.4243 83.732C11.2083 83.404 11.1003 83.048 11.1003 82.664ZM11.8803 86.6C11.8803 87.112 12.0483 87.516 12.3843 87.812C12.7283 88.1 13.1643 88.244 13.6923 88.244C13.9483 88.244 14.1803 88.204 14.3883 88.124C14.6043 88.036 14.7883 87.92 14.9403 87.776C15.1003 87.624 15.2203 87.448 15.3003 87.248C15.3883 87.048 15.4323 86.828 15.4323 86.588C15.4323 86.356 15.3843 86.144 15.2883 85.952C15.2003 85.752 15.0763 85.58 14.9163 85.436C14.7563 85.292 14.5683 85.18 14.3523 85.1C14.1443 85.012 13.9203 84.968 13.6803 84.968C13.4323 84.968 13.1963 85.008 12.9723 85.088C12.7563 85.16 12.5643 85.268 12.3963 85.412C12.2363 85.556 12.1083 85.728 12.0123 85.928C11.9243 86.128 11.8803 86.352 11.8803 86.6ZM18.5723 84.812C18.5723 85.132 18.5803 85.492 18.5963 85.892C18.6203 86.284 18.6843 86.656 18.7883 87.008C18.9003 87.352 19.0763 87.644 19.3163 87.884C19.5563 88.124 19.8923 88.244 20.3243 88.244C20.7563 88.244 21.0923 88.124 21.3323 87.884C21.5723 87.644 21.7443 87.352 21.8483 87.008C21.9603 86.656 22.0243 86.284 22.0403 85.892C22.0643 85.492 22.0763 85.132 22.0763 84.812C22.0763 84.604 22.0723 84.376 22.0643 84.128C22.0643 83.872 22.0443 83.62 22.0043 83.372C21.9723 83.116 21.9203 82.868 21.8483 82.628C21.7843 82.388 21.6843 82.18 21.5483 82.004C21.4203 81.82 21.2563 81.672 21.0563 81.56C20.8563 81.448 20.6123 81.392 20.3243 81.392C20.0363 81.392 19.7923 81.448 19.5923 81.56C19.3923 81.672 19.2243 81.82 19.0883 82.004C18.9603 82.18 18.8603 82.388 18.7883 82.628C18.7243 82.868 18.6723 83.116 18.6323 83.372C18.6003 83.62 18.5803 83.872 18.5723 84.128C18.5723 84.376 18.5723 84.604 18.5723 84.812ZM17.4923 84.824C17.4923 84.512 17.5003 84.188 17.5163 83.852C17.5323 83.516 17.5723 83.188 17.6363 82.868C17.7003 82.548 17.7923 82.244 17.9123 81.956C18.0323 81.668 18.1963 81.416 18.4043 81.2C18.6123 80.984 18.8723 80.812 19.1843 80.684C19.5043 80.556 19.8843 80.492 20.3243 80.492C20.7643 80.492 21.1403 80.556 21.4523 80.684C21.7723 80.812 22.0363 80.984 22.2443 81.2C22.4523 81.416 22.6163 81.668 22.7363 81.956C22.8563 82.244 22.9483 82.548 23.0123 82.868C23.0763 83.188 23.1163 83.516 23.1323 83.852C23.1483 84.188 23.1563 84.512 23.1563 84.824C23.1563 85.136 23.1483 85.46 23.1323 85.796C23.1163 86.132 23.0763 86.46 23.0123 86.78C22.9483 87.1 22.8563 87.404 22.7363 87.692C22.6163 87.972 22.4523 88.22 22.2443 88.436C22.0363 88.652 21.7763 88.824 21.4643 88.952C21.1523 89.072 20.7723 89.132 20.3243 89.132C19.8843 89.132 19.5043 89.072 19.1843 88.952C18.8723 88.824 18.6123 88.652 18.4043 88.436C18.1963 88.22 18.0323 87.972 17.9123 87.692C17.7923 87.404 17.7003 87.1 17.6363 86.78C17.5723 86.46 17.5323 86.132 17.5163 85.796C17.5003 85.46 17.4923 85.136 17.4923 84.824ZM25.2402 84.812C25.2402 85.132 25.2483 85.492 25.2643 85.892C25.2883 86.284 25.3523 86.656 25.4563 87.008C25.5683 87.352 25.7443 87.644 25.9843 87.884C26.2243 88.124 26.5603 88.244 26.9923 88.244C27.4243 88.244 27.7603 88.124 28.0003 87.884C28.2403 87.644 28.4123 87.352 28.5163 87.008C28.6283 86.656 28.6923 86.284 28.7083 85.892C28.7323 85.492 28.7443 85.132 28.7443 84.812C28.7443 84.604 28.7403 84.376 28.7323 84.128C28.7323 83.872 28.7123 83.62 28.6723 83.372C28.6403 83.116 28.5883 82.868 28.5163 82.628C28.4523 82.388 28.3523 82.18 28.2163 82.004C28.0883 81.82 27.9243 81.672 27.7243 81.56C27.5243 81.448 27.2803 81.392 26.9923 81.392C26.7043 81.392 26.4603 81.448 26.2603 81.56C26.0603 81.672 25.8923 81.82 25.7563 82.004C25.6283 82.18 25.5283 82.388 25.4563 82.628C25.3923 82.868 25.3403 83.116 25.3003 83.372C25.2683 83.62 25.2483 83.872 25.2402 84.128C25.2402 84.376 25.2402 84.604 25.2402 84.812ZM24.1603 84.824C24.1603 84.512 24.1683 84.188 24.1843 83.852C24.2003 83.516 24.2403 83.188 24.3043 82.868C24.3683 82.548 24.4603 82.244 24.5803 81.956C24.7003 81.668 24.8643 81.416 25.0723 81.2C25.2803 80.984 25.5403 80.812 25.8523 80.684C26.1723 80.556 26.5523 80.492 26.9923 80.492C27.4323 80.492 27.8083 80.556 28.1203 80.684C28.4403 80.812 28.7043 80.984 28.9123 81.2C29.1203 81.416 29.2843 81.668 29.4043 81.956C29.5243 82.244 29.6163 82.548 29.6803 82.868C29.7443 83.188 29.7843 83.516 29.8003 83.852C29.8163 84.188 29.8242 84.512 29.8242 84.824C29.8242 85.136 29.8163 85.46 29.8003 85.796C29.7843 86.132 29.7443 86.46 29.6803 86.78C29.6163 87.1 29.5243 87.404 29.4043 87.692C29.2843 87.972 29.1203 88.22 28.9123 88.436C28.7043 88.652 28.4443 88.824 28.1323 88.952C27.8203 89.072 27.4403 89.132 26.9923 89.132C26.5523 89.132 26.1723 89.072 25.8523 88.952C25.5403 88.824 25.2803 88.652 25.0723 88.436C24.8643 88.22 24.7003 87.972 24.5803 87.692C24.4603 87.404 24.3683 87.1 24.3043 86.78C24.2403 86.46 24.2003 86.132 24.1843 85.796C24.1683 85.46 24.1603 85.136 24.1603 84.824ZM31.3202 87.668H32.6522V89H31.3202V87.668ZM35.2481 84.812C35.2481 85.132 35.2561 85.492 35.2721 85.892C35.2961 86.284 35.3601 86.656 35.4641 87.008C35.5761 87.352 35.7521 87.644 35.9921 87.884C36.2321 88.124 36.5681 88.244 37.0001 88.244C37.4321 88.244 37.7681 88.124 38.0081 87.884C38.2481 87.644 38.4201 87.352 38.5241 87.008C38.6361 86.656 38.7001 86.284 38.7161 85.892C38.7401 85.492 38.7521 85.132 38.7521 84.812C38.7521 84.604 38.7481 84.376 38.7401 84.128C38.7401 83.872 38.7201 83.62 38.6801 83.372C38.6481 83.116 38.5961 82.868 38.5241 82.628C38.4601 82.388 38.3601 82.18 38.2241 82.004C38.0961 81.82 37.9321 81.672 37.7321 81.56C37.5321 81.448 37.2881 81.392 37.0001 81.392C36.7121 81.392 36.4681 81.448 36.2681 81.56C36.0681 81.672 35.9001 81.82 35.7641 82.004C35.6361 82.18 35.5361 82.388 35.4641 82.628C35.4001 82.868 35.3481 83.116 35.3081 83.372C35.2761 83.62 35.2561 83.872 35.2481 84.128C35.2481 84.376 35.2481 84.604 35.2481 84.812ZM34.1681 84.824C34.1681 84.512 34.1761 84.188 34.1921 83.852C34.2081 83.516 34.2481 83.188 34.3121 82.868C34.3761 82.548 34.4681 82.244 34.5881 81.956C34.7081 81.668 34.8721 81.416 35.0801 81.2C35.2881 80.984 35.5481 80.812 35.8601 80.684C36.1801 80.556 36.5601 80.492 37.0001 80.492C37.4401 80.492 37.8161 80.556 38.1281 80.684C38.4481 80.812 38.7121 80.984 38.9201 81.2C39.1281 81.416 39.2921 81.668 39.4121 81.956C39.5321 82.244 39.6241 82.548 39.6881 82.868C39.7521 83.188 39.7921 83.516 39.8081 83.852C39.8241 84.188 39.8321 84.512 39.8321 84.824C39.8321 85.136 39.8241 85.46 39.8081 85.796C39.7921 86.132 39.7521 86.46 39.6881 86.78C39.6241 87.1 39.5321 87.404 39.4121 87.692C39.2921 87.972 39.1281 88.22 38.9201 88.436C38.7121 88.652 38.4521 88.824 38.1401 88.952C37.8281 89.072 37.4481 89.132 37.0001 89.132C36.5601 89.132 36.1801 89.072 35.8601 88.952C35.5481 88.824 35.2881 88.652 35.0801 88.436C34.8721 88.22 34.7081 87.972 34.5881 87.692C34.4681 87.404 34.3761 87.1 34.3121 86.78C34.2481 86.46 34.2081 86.132 34.1921 85.796C34.1761 85.46 34.1681 85.136 34.1681 84.824ZM41.916 84.812C41.916 85.132 41.924 85.492 41.94 85.892C41.964 86.284 42.028 86.656 42.132 87.008C42.244 87.352 42.42 87.644 42.66 87.884C42.9 88.124 43.236 88.244 43.668 88.244C44.1 88.244 44.436 88.124 44.676 87.884C44.916 87.644 45.088 87.352 45.192 87.008C45.304 86.656 45.368 86.284 45.384 85.892C45.408 85.492 45.42 85.132 45.42 84.812C45.42 84.604 45.416 84.376 45.408 84.128C45.408 83.872 45.388 83.62 45.348 83.372C45.316 83.116 45.264 82.868 45.192 82.628C45.128 82.388 45.028 82.18 44.892 82.004C44.764 81.82 44.6 81.672 44.4 81.56C44.2 81.448 43.956 81.392 43.668 81.392C43.38 81.392 43.136 81.448 42.936 81.56C42.736 81.672 42.568 81.82 42.432 82.004C42.304 82.18 42.204 82.388 42.132 82.628C42.068 82.868 42.016 83.116 41.976 83.372C41.944 83.62 41.924 83.872 41.916 84.128C41.916 84.376 41.916 84.604 41.916 84.812ZM40.836 84.824C40.836 84.512 40.844 84.188 40.86 83.852C40.876 83.516 40.916 83.188 40.98 82.868C41.044 82.548 41.136 82.244 41.256 81.956C41.376 81.668 41.54 81.416 41.748 81.2C41.956 80.984 42.216 80.812 42.528 80.684C42.848 80.556 43.228 80.492 43.668 80.492C44.108 80.492 44.484 80.556 44.796 80.684C45.116 80.812 45.38 80.984 45.588 81.2C45.796 81.416 45.96 81.668 46.08 81.956C46.2 82.244 46.292 82.548 46.356 82.868C46.42 83.188 46.46 83.516 46.476 83.852C46.492 84.188 46.5 84.512 46.5 84.824C46.5 85.136 46.492 85.46 46.476 85.796C46.46 86.132 46.42 86.46 46.356 86.78C46.292 87.1 46.2 87.404 46.08 87.692C45.96 87.972 45.796 88.22 45.588 88.436C45.38 88.652 45.12 88.824 44.808 88.952C44.496 89.072 44.116 89.132 43.668 89.132C43.228 89.132 42.848 89.072 42.528 88.952C42.216 88.824 41.956 88.652 41.748 88.436C41.54 88.22 41.376 87.972 41.256 87.692C41.136 87.404 41.044 87.1 40.98 86.78C40.916 86.46 40.876 86.132 40.86 85.796C40.844 85.46 40.836 85.136 40.836 84.824Z" fill="#334155"/>
<path d="M55 85H655" stroke="white" stroke-dasharray="4 4"/>
<path d="M15.2883 130.664C15.2403 130.28 15.0923 129.972 14.8443 129.74C14.5963 129.508 14.2683 129.392 13.8603 129.392C13.4283 129.392 13.0803 129.5 12.8163 129.716C12.5523 129.924 12.3443 130.192 12.1923 130.52C12.0483 130.84 11.9483 131.188 11.8923 131.564C11.8363 131.94 11.8043 132.292 11.7963 132.62L11.8203 132.644C12.0603 132.252 12.3563 131.968 12.7083 131.792C13.0683 131.616 13.4803 131.528 13.9443 131.528C14.3523 131.528 14.7163 131.6 15.0363 131.744C15.3643 131.88 15.6363 132.072 15.8523 132.32C16.0763 132.568 16.2483 132.86 16.3683 133.196C16.4883 133.532 16.5483 133.896 16.5483 134.288C16.5483 134.6 16.5003 134.924 16.4043 135.26C16.3083 135.596 16.1483 135.904 15.9243 136.184C15.7083 136.456 15.4163 136.684 15.0483 136.868C14.6883 137.044 14.2403 137.132 13.7043 137.132C13.0723 137.132 12.5643 137.004 12.1803 136.748C11.7963 136.492 11.5003 136.164 11.2923 135.764C11.0843 135.364 10.9443 134.924 10.8723 134.444C10.8083 133.964 10.7763 133.5 10.7763 133.052C10.7763 132.468 10.8243 131.904 10.9203 131.36C11.0243 130.808 11.1963 130.32 11.4363 129.896C11.6763 129.472 11.9963 129.132 12.3963 128.876C12.7963 128.62 13.3003 128.492 13.9083 128.492C14.6123 128.492 15.1723 128.68 15.5883 129.056C16.0043 129.424 16.2443 129.96 16.3083 130.664H15.2883ZM13.7523 132.428C13.4643 132.428 13.2123 132.48 12.9963 132.584C12.7803 132.68 12.5963 132.816 12.4443 132.992C12.2923 133.16 12.1763 133.364 12.0963 133.604C12.0243 133.836 11.9883 134.084 11.9883 134.348C11.9883 134.612 12.0283 134.86 12.1083 135.092C12.1883 135.324 12.3003 135.524 12.4443 135.692C12.5963 135.86 12.7803 135.996 12.9963 136.1C13.2203 136.196 13.4723 136.244 13.7523 136.244C14.0323 136.244 14.2763 136.196 14.4843 136.1C14.7003 135.996 14.8803 135.856 15.0243 135.68C15.1683 135.504 15.2763 135.304 15.3483 135.08C15.4283 134.848 15.4683 134.608 15.4683 134.36C15.4683 134.096 15.4323 133.848 15.3603 133.616C15.2963 133.376 15.1923 133.172 15.0483 133.004C14.9043 132.828 14.7243 132.688 14.5083 132.584C14.2923 132.48 14.0403 132.428 13.7523 132.428ZM18.5723 132.812C18.5723 133.132 18.5803 133.492 18.5963 133.892C18.6203 134.284 18.6843 134.656 18.7883 135.008C18.9003 135.352 19.0763 135.644 19.3163 135.884C19.5563 136.124 19.8923 136.244 20.3243 136.244C20.7563 136.244 21.0923 136.124 21.3323 135.884C21.5723 135.644 21.7443 135.352 21.8483 135.008C21.9603 134.656 22.0243 134.284 22.0403 133.892C22.0643 133.492 22.0763 133.132 22.0763 132.812C22.0763 132.604 22.0723 132.376 22.0643 132.128C22.0643 131.872 22.0443 131.62 22.0043 131.372C21.9723 131.116 21.9203 130.868 21.8483 130.628C21.7843 130.388 21.6843 130.18 21.5483 130.004C21.4203 129.82 21.2563 129.672 21.0563 129.56C20.8563 129.448 20.6123 129.392 20.3243 129.392C20.0363 129.392 19.7923 129.448 19.5923 129.56C19.3923 129.672 19.2243 129.82 19.0883 130.004C18.9603 130.18 18.8603 130.388 18.7883 130.628C18.7243 130.868 18.6723 131.116 18.6323 131.372C18.6003 131.62 18.5803 131.872 18.5723 132.128C18.5723 132.376 18.5723 132.604 18.5723 132.812ZM17.4923 132.824C17.4923 132.512 17.5003 132.188 17.5163 131.852C17.5323 131.516 17.5723 131.188 17.6363 130.868C17.7003 130.548 17.7923 130.244 17.9123 129.956C18.0323 129.668 18.1963 129.416 18.4043 129.2C18.6123 128.984 18.8723 128.812 19.1843 128.684C19.5043 128.556 19.8843 128.492 20.3243 128.492C20.7643 128.492 21.1403 128.556 21.4523 128.684C21.7723 128.812 22.0363 128.984 22.2443 129.2C22.4523 129.416 22.6163 129.668 22.7363 129.956C22.8563 130.244 22.9483 130.548 23.0123 130.868C23.0763 131.188 23.1163 131.516 23.1323 131.852C23.1483 132.188 23.1563 132.512 23.1563 132.824C23.1563 133.136 23.1483 133.46 23.1323 133.796C23.1163 134.132 23.0763 134.46 23.0123 134.78C22.9483 135.1 22.8563 135.404 22.7363 135.692C22.6163 135.972 22.4523 136.22 22.2443 136.436C22.0363 136.652 21.7763 136.824 21.4643 136.952C21.1523 137.072 20.7723 137.132 20.3243 137.132C19.8843 137.132 19.5043 137.072 19.1843 136.952C18.8723 136.824 18.6123 136.652 18.4043 136.436C18.1963 136.22 18.0323 135.972 17.9123 135.692C17.7923 135.404 17.7003 135.1 17.6363 134.78C17.5723 134.46 17.5323 134.132 17.5163 133.796C17.5003 133.46 17.4923 133.136 17.4923 132.824ZM25.2402 132.812C25.2402 133.132 25.2483 133.492 25.2643 133.892C25.2883 134.284 25.3523 134.656 25.4563 135.008C25.5683 135.352 25.7443 135.644 25.9843 135.884C26.2243 136.124 26.5603 136.244 26.9923 136.244C27.4243 136.244 27.7603 136.124 28.0003 135.884C28.2403 135.644 28.4123 135.352 28.5163 135.008C28.6283 134.656 28.6923 134.284 28.7083 133.892C28.7323 133.492 28.7443 133.132 28.7443 132.812C28.7443 132.604 28.7403 132.376 28.7323 132.128C28.7323 131.872 28.7123 131.62 28.6723 131.372C28.6403 131.116 28.5883 130.868 28.5163 130.628C28.4523 130.388 28.3523 130.18 28.2163 130.004C28.0883 129.82 27.9243 129.672 27.7243 129.56C27.5243 129.448 27.2803 129.392 26.9923 129.392C26.7043 129.392 26.4603 129.448 26.2603 129.56C26.0603 129.672 25.8923 129.82 25.7563 130.004C25.6283 130.18 25.5283 130.388 25.4563 130.628C25.3923 130.868 25.3403 131.116 25.3003 131.372C25.2683 131.62 25.2483 131.872 25.2402 132.128C25.2402 132.376 25.2402 132.604 25.2402 132.812ZM24.1603 132.824C24.1603 132.512 24.1683 132.188 24.1843 131.852C24.2003 131.516 24.2403 131.188 24.3043 130.868C24.3683 130.548 24.4603 130.244 24.5803 129.956C24.7003 129.668 24.8643 129.416 25.0723 129.2C25.2803 128.984 25.5403 128.812 25.8523 128.684C26.1723 128.556 26.5523 128.492 26.9923 128.492C27.4323 128.492 27.8083 128.556 28.1203 128.684C28.4403 128.812 28.7043 128.984 28.9123 129.2C29.1203 129.416 29.2843 129.668 29.4043 129.956C29.5243 130.244 29.6163 130.548 29.6803 130.868C29.7443 131.188 29.7843 131.516 29.8003 131.852C29.8163 132.188 29.8242 132.512 29.8242 132.824C29.8242 133.136 29.8163 133.46 29.8003 133.796C29.7843 134.132 29.7443 134.46 29.6803 134.78C29.6163 135.1 29.5243 135.404 29.4043 135.692C29.2843 135.972 29.1203 136.22 28.9123 136.436C28.7043 136.652 28.4443 136.824 28.1323 136.952C27.8203 137.072 27.4403 137.132 26.9923 137.132C26.5523 137.132 26.1723 137.072 25.8523 136.952C25.5403 136.824 25.2803 136.652 25.0723 136.436C24.8643 136.22 24.7003 135.972 24.5803 135.692C24.4603 135.404 24.3683 135.1 24.3043 134.78C24.2403 134.46 24.2003 134.132 24.1843 133.796C24.1683 133.46 24.1603 133.136 24.1603 132.824ZM31.3202 135.668H32.6522V137H31.3202V135.668ZM35.2481 132.812C35.2481 133.132 35.2561 133.492 35.2721 133.892C35.2961 134.284 35.3601 134.656 35.4641 135.008C35.5761 135.352 35.7521 135.644 35.9921 135.884C36.2321 136.124 36.5681 136.244 37.0001 136.244C37.4321 136.244 37.7681 136.124 38.0081 135.884C38.2481 135.644 38.4201 135.352 38.5241 135.008C38.6361 134.656 38.7001 134.284 38.7161 133.892C38.7401 133.492 38.7521 133.132 38.7521 132.812C38.7521 132.604 38.7481 132.376 38.7401 132.128C38.7401 131.872 38.7201 131.62 38.6801 131.372C38.6481 131.116 38.5961 130.868 38.5241 130.628C38.4601 130.388 38.3601 130.18 38.2241 130.004C38.0961 129.82 37.9321 129.672 37.7321 129.56C37.5321 129.448 37.2881 129.392 37.0001 129.392C36.7121 129.392 36.4681 129.448 36.2681 129.56C36.0681 129.672 35.9001 129.82 35.7641 130.004C35.6361 130.18 35.5361 130.388 35.4641 130.628C35.4001 130.868 35.3481 131.116 35.3081 131.372C35.2761 131.62 35.2561 131.872 35.2481 132.128C35.2481 132.376 35.2481 132.604 35.2481 132.812ZM34.1681 132.824C34.1681 132.512 34.1761 132.188 34.1921 131.852C34.2081 131.516 34.2481 131.188 34.3121 130.868C34.3761 130.548 34.4681 130.244 34.5881 129.956C34.7081 129.668 34.8721 129.416 35.0801 129.2C35.2881 128.984 35.5481 128.812 35.8601 128.684C36.1801 128.556 36.5601 128.492 37.0001 128.492C37.4401 128.492 37.8161 128.556 38.1281 128.684C38.4481 128.812 38.7121 128.984 38.9201 129.2C39.1281 129.416 39.2921 129.668 39.4121 129.956C39.5321 130.244 39.6241 130.548 39.6881 130.868C39.7521 131.188 39.7921 131.516 39.8081 131.852C39.8241 132.188 39.8321 132.512 39.8321 132.824C39.8321 133.136 39.8241 133.46 39.8081 133.796C39.7921 134.132 39.7521 134.46 39.6881 134.78C39.6241 135.1 39.5321 135.404 39.4121 135.692C39.2921 135.972 39.1281 136.22 38.9201 136.436C38.7121 136.652 38.4521 136.824 38.1401 136.952C37.8281 137.072 37.4481 137.132 37.0001 137.132C36.5601 137.132 36.1801 137.072 35.8601 136.952C35.5481 136.824 35.2881 136.652 35.0801 136.436C34.8721 136.22 34.7081 135.972 34.5881 135.692C34.4681 135.404 34.3761 135.1 34.3121 134.78C34.2481 134.46 34.2081 134.132 34.1921 133.796C34.1761 133.46 34.1681 133.136 34.1681 132.824ZM41.916 132.812C41.916 133.132 41.924 133.492 41.94 133.892C41.964 134.284 42.028 134.656 42.132 135.008C42.244 135.352 42.42 135.644 42.66 135.884C42.9 136.124 43.236 136.244 43.668 136.244C44.1 136.244 44.436 136.124 44.676 135.884C44.916 135.644 45.088 135.352 45.192 135.008C45.304 134.656 45.368 134.284 45.384 133.892C45.408 133.492 45.42 133.132 45.42 132.812C45.42 132.604 45.416 132.376 45.408 132.128C45.408 131.872 45.388 131.62 45.348 131.372C45.316 131.116 45.264 130.868 45.192 130.628C45.128 130.388 45.028 130.18 44.892 130.004C44.764 129.82 44.6 129.672 44.4 129.56C44.2 129.448 43.956 129.392 43.668 129.392C43.38 129.392 43.136 129.448 42.936 129.56C42.736 129.672 42.568 129.82 42.432 130.004C42.304 130.18 42.204 130.388 42.132 130.628C42.068 130.868 42.016 131.116 41.976 131.372C41.944 131.62 41.924 131.872 41.916 132.128C41.916 132.376 41.916 132.604 41.916 132.812ZM40.836 132.824C40.836 132.512 40.844 132.188 40.86 131.852C40.876 131.516 40.916 131.188 40.98 130.868C41.044 130.548 41.136 130.244 41.256 129.956C41.376 129.668 41.54 129.416 41.748 129.2C41.956 128.984 42.216 128.812 42.528 128.684C42.848 128.556 43.228 128.492 43.668 128.492C44.108 128.492 44.484 128.556 44.796 128.684C45.116 128.812 45.38 128.984 45.588 129.2C45.796 129.416 45.96 129.668 46.08 129.956C46.2 130.244 46.292 130.548 46.356 130.868C46.42 131.188 46.46 131.516 46.476 131.852C46.492 132.188 46.5 132.512 46.5 132.824C46.5 133.136 46.492 133.46 46.476 133.796C46.46 134.132 46.42 134.46 46.356 134.78C46.292 135.1 46.2 135.404 46.08 135.692C45.96 135.972 45.796 136.22 45.588 136.436C45.38 136.652 45.12 136.824 44.808 136.952C44.496 137.072 44.116 137.132 43.668 137.132C43.228 137.132 42.848 137.072 42.528 136.952C42.216 136.824 41.956 136.652 41.748 136.436C41.54 136.22 41.376 135.972 41.256 135.692C41.136 135.404 41.044 135.1 40.98 134.78C40.916 134.46 40.876 134.132 40.86 133.796C40.844 133.46 40.836 133.136 40.836 132.824Z" fill="#334155"/>
<path d="M55 133H655" stroke="white" stroke-dasharray="4 4"/>
<path d="M14.3883 182.108V177.944H14.3643L11.5323 182.108H14.3883ZM15.3483 182.108H16.5003V183.008H15.3483V185H14.3883V183.008H10.6563V182.024L14.5323 176.492H15.3483V182.108ZM18.5723 180.812C18.5723 181.132 18.5803 181.492 18.5963 181.892C18.6203 182.284 18.6843 182.656 18.7883 183.008C18.9003 183.352 19.0763 183.644 19.3163 183.884C19.5563 184.124 19.8923 184.244 20.3243 184.244C20.7563 184.244 21.0923 184.124 21.3323 183.884C21.5723 183.644 21.7443 183.352 21.8483 183.008C21.9603 182.656 22.0243 182.284 22.0403 181.892C22.0643 181.492 22.0763 181.132 22.0763 180.812C22.0763 180.604 22.0723 180.376 22.0643 180.128C22.0643 179.872 22.0443 179.62 22.0043 179.372C21.9723 179.116 21.9203 178.868 21.8483 178.628C21.7843 178.388 21.6843 178.18 21.5483 178.004C21.4203 177.82 21.2563 177.672 21.0563 177.56C20.8563 177.448 20.6123 177.392 20.3243 177.392C20.0363 177.392 19.7923 177.448 19.5923 177.56C19.3923 177.672 19.2243 177.82 19.0883 178.004C18.9603 178.18 18.8603 178.388 18.7883 178.628C18.7243 178.868 18.6723 179.116 18.6323 179.372C18.6003 179.62 18.5803 179.872 18.5723 180.128C18.5723 180.376 18.5723 180.604 18.5723 180.812ZM17.4923 180.824C17.4923 180.512 17.5003 180.188 17.5163 179.852C17.5323 179.516 17.5723 179.188 17.6363 178.868C17.7003 178.548 17.7923 178.244 17.9123 177.956C18.0323 177.668 18.1963 177.416 18.4043 177.2C18.6123 176.984 18.8723 176.812 19.1843 176.684C19.5043 176.556 19.8843 176.492 20.3243 176.492C20.7643 176.492 21.1403 176.556 21.4523 176.684C21.7723 176.812 22.0363 176.984 22.2443 177.2C22.4523 177.416 22.6163 177.668 22.7363 177.956C22.8563 178.244 22.9483 178.548 23.0123 178.868C23.0763 179.188 23.1163 179.516 23.1323 179.852C23.1483 180.188 23.1563 180.512 23.1563 180.824C23.1563 181.136 23.1483 181.46 23.1323 181.796C23.1163 182.132 23.0763 182.46 23.0123 182.78C22.9483 183.1 22.8563 183.404 22.7363 183.692C22.6163 183.972 22.4523 184.22 22.2443 184.436C22.0363 184.652 21.7763 184.824 21.4643 184.952C21.1523 185.072 20.7723 185.132 20.3243 185.132C19.8843 185.132 19.5043 185.072 19.1843 184.952C18.8723 184.824 18.6123 184.652 18.4043 184.436C18.1963 184.22 18.0323 183.972 17.9123 183.692C17.7923 183.404 17.7003 183.1 17.6363 182.78C17.5723 182.46 17.5323 182.132 17.5163 181.796C17.5003 181.46 17.4923 181.136 17.4923 180.824ZM25.2402 180.812C25.2402 181.132 25.2483 181.492 25.2643 181.892C25.2883 182.284 25.3523 182.656 25.4563 183.008C25.5683 183.352 25.7443 183.644 25.9843 183.884C26.2243 184.124 26.5603 184.244 26.9923 184.244C27.4243 184.244 27.7603 184.124 28.0003 183.884C28.2403 183.644 28.4123 183.352 28.5163 183.008C28.6283 182.656 28.6923 182.284 28.7083 181.892C28.7323 181.492 28.7443 181.132 28.7443 180.812C28.7443 180.604 28.7403 180.376 28.7323 180.128C28.7323 179.872 28.7123 179.62 28.6723 179.372C28.6403 179.116 28.5883 178.868 28.5163 178.628C28.4523 178.388 28.3523 178.18 28.2163 178.004C28.0883 177.82 27.9243 177.672 27.7243 177.56C27.5243 177.448 27.2803 177.392 26.9923 177.392C26.7043 177.392 26.4603 177.448 26.2603 177.56C26.0603 177.672 25.8923 177.82 25.7563 178.004C25.6283 178.18 25.5283 178.388 25.4563 178.628C25.3923 178.868 25.3403 179.116 25.3003 179.372C25.2683 179.62 25.2483 179.872 25.2402 180.128C25.2402 180.376 25.2402 180.604 25.2402 180.812ZM24.1603 180.824C24.1603 180.512 24.1683 180.188 24.1843 179.852C24.2003 179.516 24.2403 179.188 24.3043 178.868C24.3683 178.548 24.4603 178.244 24.5803 177.956C24.7003 177.668 24.8643 177.416 25.0723 177.2C25.2803 176.984 25.5403 176.812 25.8523 176.684C26.1723 176.556 26.5523 176.492 26.9923 176.492C27.4323 176.492 27.8083 176.556 28.1203 176.684C28.4403 176.812 28.7043 176.984 28.9123 177.2C29.1203 177.416 29.2843 177.668 29.4043 177.956C29.5243 178.244 29.6163 178.548 29.6803 178.868C29.7443 179.188 29.7843 179.516 29.8003 179.852C29.8163 180.188 29.8242 180.512 29.8242 180.824C29.8242 181.136 29.8163 181.46 29.8003 181.796C29.7843 182.132 29.7443 182.46 29.6803 182.78C29.6163 183.1 29.5243 183.404 29.4043 183.692C29.2843 183.972 29.1203 184.22 28.9123 184.436C28.7043 184.652 28.4443 184.824 28.1323 184.952C27.8203 185.072 27.4403 185.132 26.9923 185.132C26.5523 185.132 26.1723 185.072 25.8523 184.952C25.5403 184.824 25.2803 184.652 25.0723 184.436C24.8643 184.22 24.7003 183.972 24.5803 183.692C24.4603 183.404 24.3683 183.1 24.3043 182.78C24.2403 182.46 24.2003 182.132 24.1843 181.796C24.1683 181.46 24.1603 181.136 24.1603 180.824ZM31.3202 183.668H32.6522V185H31.3202V183.668ZM35.2481 180.812C35.2481 181.132 35.2561 181.492 35.2721 181.892C35.2961 182.284 35.3601 182.656 35.4641 183.008C35.5761 183.352 35.7521 183.644 35.9921 183.884C36.2321 184.124 36.5681 184.244 37.0001 184.244C37.4321 184.244 37.7681 184.124 38.0081 183.884C38.2481 183.644 38.4201 183.352 38.5241 183.008C38.6361 182.656 38.7001 182.284 38.7161 181.892C38.7401 181.492 38.7521 181.132 38.7521 180.812C38.7521 180.604 38.7481 180.376 38.7401 180.128C38.7401 179.872 38.7201 179.62 38.6801 179.372C38.6481 179.116 38.5961 178.868 38.5241 178.628C38.4601 178.388 38.3601 178.18 38.2241 178.004C38.0961 177.82 37.9321 177.672 37.7321 177.56C37.5321 177.448 37.2881 177.392 37.0001 177.392C36.7121 177.392 36.4681 177.448 36.2681 177.56C36.0681 177.672 35.9001 177.82 35.7641 178.004C35.6361 178.18 35.5361 178.388 35.4641 178.628C35.4001 178.868 35.3481 179.116 35.3081 179.372C35.2761 179.62 35.2561 179.872 35.2481 180.128C35.2481 180.376 35.2481 180.604 35.2481 180.812ZM34.1681 180.824C34.1681 180.512 34.1761 180.188 34.1921 179.852C34.2081 179.516 34.2481 179.188 34.3121 178.868C34.3761 178.548 34.4681 178.244 34.5881 177.956C34.7081 177.668 34.8721 177.416 35.0801 177.2C35.2881 176.984 35.5481 176.812 35.8601 176.684C36.1801 176.556 36.5601 176.492 37.0001 176.492C37.4401 176.492 37.8161 176.556 38.1281 176.684C38.4481 176.812 38.7121 176.984 38.9201 177.2C39.1281 177.416 39.2921 177.668 39.4121 177.956C39.5321 178.244 39.6241 178.548 39.6881 178.868C39.7521 179.188 39.7921 179.516 39.8081 179.852C39.8241 180.188 39.8321 180.512 39.8321 180.824C39.8321 181.136 39.8241 181.46 39.8081 181.796C39.7921 182.132 39.7521 182.46 39.6881 182.78C39.6241 183.1 39.5321 183.404 39.4121 183.692C39.2921 183.972 39.1281 184.22 38.9201 184.436C38.7121 184.652 38.4521 184.824 38.1401 184.952C37.8281 185.072 37.4481 185.132 37.0001 185.132C36.5601 185.132 36.1801 185.072 35.8601 184.952C35.5481 184.824 35.2881 184.652 35.0801 184.436C34.8721 184.22 34.7081 183.972 34.5881 183.692C34.4681 183.404 34.3761 183.1 34.3121 182.78C34.2481 182.46 34.2081 182.132 34.1921 181.796C34.1761 181.46 34.1681 181.136 34.1681 180.824ZM41.916 180.812C41.916 181.132 41.924 181.492 41.94 181.892C41.964 182.284 42.028 182.656 42.132 183.008C42.244 183.352 42.42 183.644 42.66 183.884C42.9 184.124 43.236 184.244 43.668 184.244C44.1 184.244 44.436 184.124 44.676 183.884C44.916 183.644 45.088 183.352 45.192 183.008C45.304 182.656 45.368 182.284 45.384 181.892C45.408 181.492 45.42 181.132 45.42 180.812C45.42 180.604 45.416 180.376 45.408 180.128C45.408 179.872 45.388 179.62 45.348 179.372C45.316 179.116 45.264 178.868 45.192 178.628C45.128 178.388 45.028 178.18 44.892 178.004C44.764 177.82 44.6 177.672 44.4 177.56C44.2 177.448 43.956 177.392 43.668 177.392C43.38 177.392 43.136 177.448 42.936 177.56C42.736 177.672 42.568 177.82 42.432 178.004C42.304 178.18 42.204 178.388 42.132 178.628C42.068 178.868 42.016 179.116 41.976 179.372C41.944 179.62 41.924 179.872 41.916 180.128C41.916 180.376 41.916 180.604 41.916 180.812ZM40.836 180.824C40.836 180.512 40.844 180.188 40.86 179.852C40.876 179.516 40.916 179.188 40.98 178.868C41.044 178.548 41.136 178.244 41.256 177.956C41.376 177.668 41.54 177.416 41.748 177.2C41.956 176.984 42.216 176.812 42.528 176.684C42.848 176.556 43.228 176.492 43.668 176.492C44.108 176.492 44.484 176.556 44.796 176.684C45.116 176.812 45.38 176.984 45.588 177.2C45.796 177.416 45.96 177.668 46.08 177.956C46.2 178.244 46.292 178.548 46.356 178.868C46.42 179.188 46.46 179.516 46.476 179.852C46.492 180.188 46.5 180.512 46.5 180.824C46.5 181.136 46.492 181.46 46.476 181.796C46.46 182.132 46.42 182.46 46.356 182.78C46.292 183.1 46.2 183.404 46.08 183.692C45.96 183.972 45.796 184.22 45.588 184.436C45.38 184.652 45.12 184.824 44.808 184.952C44.496 185.072 44.116 185.132 43.668 185.132C43.228 185.132 42.848 185.072 42.528 184.952C42.216 184.824 41.956 184.652 41.748 184.436C41.54 184.22 41.376 183.972 41.256 183.692C41.136 183.404 41.044 183.1 40.98 182.78C40.916 182.46 40.876 182.132 40.86 181.796C40.844 181.46 40.836 181.136 40.836 180.824Z" fill="#334155"/>
<path d="M55 181H655" stroke="white" stroke-dasharray="4 4"/>
<path d="M10.8483 227.504C10.8243 227.072 10.8683 226.672 10.9803 226.304C11.0923 225.936 11.2643 225.62 11.4963 225.356C11.7363 225.084 12.0323 224.872 12.3843 224.72C12.7363 224.568 13.1363 224.492 13.5843 224.492C13.9523 224.492 14.2963 224.548 14.6163 224.66C14.9443 224.764 15.2283 224.92 15.4683 225.128C15.7083 225.328 15.8963 225.58 16.0323 225.884C16.1763 226.188 16.2483 226.54 16.2483 226.94C16.2483 227.316 16.1883 227.648 16.0683 227.936C15.9563 228.224 15.8043 228.484 15.6123 228.716C15.4203 228.94 15.2003 229.144 14.9523 229.328C14.7043 229.512 14.4483 229.688 14.1843 229.856C13.9203 230.016 13.6563 230.176 13.3923 230.336C13.1283 230.488 12.8843 230.652 12.6603 230.828C12.4443 231.004 12.2563 231.196 12.0963 231.404C11.9443 231.604 11.8443 231.836 11.7963 232.1H16.1643V233H10.6083C10.6483 232.496 10.7363 232.068 10.8723 231.716C11.0163 231.356 11.1963 231.044 11.4123 230.78C11.6283 230.516 11.8723 230.284 12.1443 230.084C12.4163 229.884 12.7003 229.696 12.9963 229.52C13.3563 229.296 13.6723 229.092 13.9443 228.908C14.2163 228.716 14.4403 228.524 14.6163 228.332C14.8003 228.14 14.9363 227.932 15.0243 227.708C15.1203 227.484 15.1683 227.224 15.1683 226.928C15.1683 226.696 15.1243 226.488 15.0363 226.304C14.9483 226.112 14.8283 225.948 14.6763 225.812C14.5323 225.676 14.3603 225.572 14.1603 225.5C13.9603 225.428 13.7483 225.392 13.5243 225.392C13.2283 225.392 12.9723 225.456 12.7563 225.584C12.5483 225.704 12.3763 225.864 12.2403 226.064C12.1043 226.264 12.0043 226.492 11.9403 226.748C11.8843 226.996 11.8603 227.248 11.8683 227.504H10.8483ZM18.5723 228.812C18.5723 229.132 18.5803 229.492 18.5963 229.892C18.6203 230.284 18.6843 230.656 18.7883 231.008C18.9003 231.352 19.0763 231.644 19.3163 231.884C19.5563 232.124 19.8923 232.244 20.3243 232.244C20.7563 232.244 21.0923 232.124 21.3323 231.884C21.5723 231.644 21.7443 231.352 21.8483 231.008C21.9603 230.656 22.0243 230.284 22.0403 229.892C22.0643 229.492 22.0763 229.132 22.0763 228.812C22.0763 228.604 22.0723 228.376 22.0643 228.128C22.0643 227.872 22.0443 227.62 22.0043 227.372C21.9723 227.116 21.9203 226.868 21.8483 226.628C21.7843 226.388 21.6843 226.18 21.5483 226.004C21.4203 225.82 21.2563 225.672 21.0563 225.56C20.8563 225.448 20.6123 225.392 20.3243 225.392C20.0363 225.392 19.7923 225.448 19.5923 225.56C19.3923 225.672 19.2243 225.82 19.0883 226.004C18.9603 226.18 18.8603 226.388 18.7883 226.628C18.7243 226.868 18.6723 227.116 18.6323 227.372C18.6003 227.62 18.5803 227.872 18.5723 228.128C18.5723 228.376 18.5723 228.604 18.5723 228.812ZM17.4923 228.824C17.4923 228.512 17.5003 228.188 17.5163 227.852C17.5323 227.516 17.5723 227.188 17.6363 226.868C17.7003 226.548 17.7923 226.244 17.9123 225.956C18.0323 225.668 18.1963 225.416 18.4043 225.2C18.6123 224.984 18.8723 224.812 19.1843 224.684C19.5043 224.556 19.8843 224.492 20.3243 224.492C20.7643 224.492 21.1403 224.556 21.4523 224.684C21.7723 224.812 22.0363 224.984 22.2443 225.2C22.4523 225.416 22.6163 225.668 22.7363 225.956C22.8563 226.244 22.9483 226.548 23.0123 226.868C23.0763 227.188 23.1163 227.516 23.1323 227.852C23.1483 228.188 23.1563 228.512 23.1563 228.824C23.1563 229.136 23.1483 229.46 23.1323 229.796C23.1163 230.132 23.0763 230.46 23.0123 230.78C22.9483 231.1 22.8563 231.404 22.7363 231.692C22.6163 231.972 22.4523 232.22 22.2443 232.436C22.0363 232.652 21.7763 232.824 21.4643 232.952C21.1523 233.072 20.7723 233.132 20.3243 233.132C19.8843 233.132 19.5043 233.072 19.1843 232.952C18.8723 232.824 18.6123 232.652 18.4043 232.436C18.1963 232.22 18.0323 231.972 17.9123 231.692C17.7923 231.404 17.7003 231.1 17.6363 230.78C17.5723 230.46 17.5323 230.132 17.5163 229.796C17.5003 229.46 17.4923 229.136 17.4923 228.824ZM25.2402 228.812C25.2402 229.132 25.2483 229.492 25.2643 229.892C25.2883 230.284 25.3523 230.656 25.4563 231.008C25.5683 231.352 25.7443 231.644 25.9843 231.884C26.2243 232.124 26.5603 232.244 26.9923 232.244C27.4243 232.244 27.7603 232.124 28.0003 231.884C28.2403 231.644 28.4123 231.352 28.5163 231.008C28.6283 230.656 28.6923 230.284 28.7083 229.892C28.7323 229.492 28.7443 229.132 28.7443 228.812C28.7443 228.604 28.7403 228.376 28.7323 228.128C28.7323 227.872 28.7123 227.62 28.6723 227.372C28.6403 227.116 28.5883 226.868 28.5163 226.628C28.4523 226.388 28.3523 226.18 28.2163 226.004C28.0883 225.82 27.9243 225.672 27.7243 225.56C27.5243 225.448 27.2803 225.392 26.9923 225.392C26.7043 225.392 26.4603 225.448 26.2603 225.56C26.0603 225.672 25.8923 225.82 25.7563 226.004C25.6283 226.18 25.5283 226.388 25.4563 226.628C25.3923 226.868 25.3403 227.116 25.3003 227.372C25.2683 227.62 25.2483 227.872 25.2402 228.128C25.2402 228.376 25.2402 228.604 25.2402 228.812ZM24.1603 228.824C24.1603 228.512 24.1683 228.188 24.1843 227.852C24.2003 227.516 24.2403 227.188 24.3043 226.868C24.3683 226.548 24.4603 226.244 24.5803 225.956C24.7003 225.668 24.8643 225.416 25.0723 225.2C25.2803 224.984 25.5403 224.812 25.8523 224.684C26.1723 224.556 26.5523 224.492 26.9923 224.492C27.4323 224.492 27.8083 224.556 28.1203 224.684C28.4403 224.812 28.7043 224.984 28.9123 225.2C29.1203 225.416 29.2843 225.668 29.4043 225.956C29.5243 226.244 29.6163 226.548 29.6803 226.868C29.7443 227.188 29.7843 227.516 29.8003 227.852C29.8163 228.188 29.8242 228.512 29.8242 228.824C29.8242 229.136 29.8163 229.46 29.8003 229.796C29.7843 230.132 29.7443 230.46 29.6803 230.78C29.6163 231.1 29.5243 231.404 29.4043 231.692C29.2843 231.972 29.1203 232.22 28.9123 232.436C28.7043 232.652 28.4443 232.824 28.1323 232.952C27.8203 233.072 27.4403 233.132 26.9923 233.132C26.5523 233.132 26.1723 233.072 25.8523 232.952C25.5403 232.824 25.2803 232.652 25.0723 232.436C24.8643 232.22 24.7003 231.972 24.5803 231.692C24.4603 231.404 24.3683 231.1 24.3043 230.78C24.2403 230.46 24.2003 230.132 24.1843 229.796C24.1683 229.46 24.1603 229.136 24.1603 228.824ZM31.3202 231.668H32.6522V233H31.3202V231.668ZM35.2481 228.812C35.2481 229.132 35.2561 229.492 35.2721 229.892C35.2961 230.284 35.3601 230.656 35.4641 231.008C35.5761 231.352 35.7521 231.644 35.9921 231.884C36.2321 232.124 36.5681 232.244 37.0001 232.244C37.4321 232.244 37.7681 232.124 38.0081 231.884C38.2481 231.644 38.4201 231.352 38.5241 231.008C38.6361 230.656 38.7001 230.284 38.7161 229.892C38.7401 229.492 38.7521 229.132 38.7521 228.812C38.7521 228.604 38.7481 228.376 38.7401 228.128C38.7401 227.872 38.7201 227.62 38.6801 227.372C38.6481 227.116 38.5961 226.868 38.5241 226.628C38.4601 226.388 38.3601 226.18 38.2241 226.004C38.0961 225.82 37.9321 225.672 37.7321 225.56C37.5321 225.448 37.2881 225.392 37.0001 225.392C36.7121 225.392 36.4681 225.448 36.2681 225.56C36.0681 225.672 35.9001 225.82 35.7641 226.004C35.6361 226.18 35.5361 226.388 35.4641 226.628C35.4001 226.868 35.3481 227.116 35.3081 227.372C35.2761 227.62 35.2561 227.872 35.2481 228.128C35.2481 228.376 35.2481 228.604 35.2481 228.812ZM34.1681 228.824C34.1681 228.512 34.1761 228.188 34.1921 227.852C34.2081 227.516 34.2481 227.188 34.3121 226.868C34.3761 226.548 34.4681 226.244 34.5881 225.956C34.7081 225.668 34.8721 225.416 35.0801 225.2C35.2881 224.984 35.5481 224.812 35.8601 224.684C36.1801 224.556 36.5601 224.492 37.0001 224.492C37.4401 224.492 37.8161 224.556 38.1281 224.684C38.4481 224.812 38.7121 224.984 38.9201 225.2C39.1281 225.416 39.2921 225.668 39.4121 225.956C39.5321 226.244 39.6241 226.548 39.6881 226.868C39.7521 227.188 39.7921 227.516 39.8081 227.852C39.8241 228.188 39.8321 228.512 39.8321 228.824C39.8321 229.136 39.8241 229.46 39.8081 229.796C39.7921 230.132 39.7521 230.46 39.6881 230.78C39.6241 231.1 39.5321 231.404 39.4121 231.692C39.2921 231.972 39.1281 232.22 38.9201 232.436C38.7121 232.652 38.4521 232.824 38.1401 232.952C37.8281 233.072 37.4481 233.132 37.0001 233.132C36.5601 233.132 36.1801 233.072 35.8601 232.952C35.5481 232.824 35.2881 232.652 35.0801 232.436C34.8721 232.22 34.7081 231.972 34.5881 231.692C34.4681 231.404 34.3761 231.1 34.3121 230.78C34.2481 230.46 34.2081 230.132 34.1921 229.796C34.1761 229.46 34.1681 229.136 34.1681 228.824ZM41.916 228.812C41.916 229.132 41.924 229.492 41.94 229.892C41.964 230.284 42.028 230.656 42.132 231.008C42.244 231.352 42.42 231.644 42.66 231.884C42.9 232.124 43.236 232.244 43.668 232.244C44.1 232.244 44.436 232.124 44.676 231.884C44.916 231.644 45.088 231.352 45.192 231.008C45.304 230.656 45.368 230.284 45.384 229.892C45.408 229.492 45.42 229.132 45.42 228.812C45.42 228.604 45.416 228.376 45.408 228.128C45.408 227.872 45.388 227.62 45.348 227.372C45.316 227.116 45.264 226.868 45.192 226.628C45.128 226.388 45.028 226.18 44.892 226.004C44.764 225.82 44.6 225.672 44.4 225.56C44.2 225.448 43.956 225.392 43.668 225.392C43.38 225.392 43.136 225.448 42.936 225.56C42.736 225.672 42.568 225.82 42.432 226.004C42.304 226.18 42.204 226.388 42.132 226.628C42.068 226.868 42.016 227.116 41.976 227.372C41.944 227.62 41.924 227.872 41.916 228.128C41.916 228.376 41.916 228.604 41.916 228.812ZM40.836 228.824C40.836 228.512 40.844 228.188 40.86 227.852C40.876 227.516 40.916 227.188 40.98 226.868C41.044 226.548 41.136 226.244 41.256 225.956C41.376 225.668 41.54 225.416 41.748 225.2C41.956 224.984 42.216 224.812 42.528 224.684C42.848 224.556 43.228 224.492 43.668 224.492C44.108 224.492 44.484 224.556 44.796 224.684C45.116 224.812 45.38 224.984 45.588 225.2C45.796 225.416 45.96 225.668 46.08 225.956C46.2 226.244 46.292 226.548 46.356 226.868C46.42 227.188 46.46 227.516 46.476 227.852C46.492 228.188 46.5 228.512 46.5 228.824C46.5 229.136 46.492 229.46 46.476 229.796C46.46 230.132 46.42 230.46 46.356 230.78C46.292 231.1 46.2 231.404 46.08 231.692C45.96 231.972 45.796 232.22 45.588 232.436C45.38 232.652 45.12 232.824 44.808 232.952C44.496 233.072 44.116 233.132 43.668 233.132C43.228 233.132 42.848 233.072 42.528 232.952C42.216 232.824 41.956 232.652 41.748 232.436C41.54 232.22 41.376 231.972 41.256 231.692C41.136 231.404 41.044 231.1 40.98 230.78C40.916 230.46 40.876 230.132 40.86 229.796C40.844 229.46 40.836 229.136 40.836 228.824Z" fill="#334155"/>
<path d="M55 229H655" stroke="white" stroke-dasharray="4 4"/>
<path d="M41.916 276.812C41.916 277.132 41.924 277.492 41.94 277.892C41.964 278.284 42.028 278.656 42.132 279.008C42.244 279.352 42.42 279.644 42.66 279.884C42.9 280.124 43.236 280.244 43.668 280.244C44.1 280.244 44.436 280.124 44.676 279.884C44.916 279.644 45.088 279.352 45.192 279.008C45.304 278.656 45.368 278.284 45.384 277.892C45.408 277.492 45.42 277.132 45.42 276.812C45.42 276.604 45.416 276.376 45.408 276.128C45.408 275.872 45.388 275.62 45.348 275.372C45.316 275.116 45.264 274.868 45.192 274.628C45.128 274.388 45.028 274.18 44.892 274.004C44.764 273.82 44.6 273.672 44.4 273.56C44.2 273.448 43.956 273.392 43.668 273.392C43.38 273.392 43.136 273.448 42.936 273.56C42.736 273.672 42.568 273.82 42.432 274.004C42.304 274.18 42.204 274.388 42.132 274.628C42.068 274.868 42.016 275.116 41.976 275.372C41.944 275.62 41.924 275.872 41.916 276.128C41.916 276.376 41.916 276.604 41.916 276.812ZM40.836 276.824C40.836 276.512 40.844 276.188 40.86 275.852C40.876 275.516 40.916 275.188 40.98 274.868C41.044 274.548 41.136 274.244 41.256 273.956C41.376 273.668 41.54 273.416 41.748 273.2C41.956 272.984 42.216 272.812 42.528 272.684C42.848 272.556 43.228 272.492 43.668 272.492C44.108 272.492 44.484 272.556 44.796 272.684C45.116 272.812 45.38 272.984 45.588 273.2C45.796 273.416 45.96 273.668 46.08 273.956C46.2 274.244 46.292 274.548 46.356 274.868C46.42 275.188 46.46 275.516 46.476 275.852C46.492 276.188 46.5 276.512 46.5 276.824C46.5 277.136 46.492 277.46 46.476 277.796C46.46 278.132 46.42 278.46 46.356 278.78C46.292 279.1 46.2 279.404 46.08 279.692C45.96 279.972 45.796 280.22 45.588 280.436C45.38 280.652 45.12 280.824 44.808 280.952C44.496 281.072 44.116 281.132 43.668 281.132C43.228 281.132 42.848 281.072 42.528 280.952C42.216 280.824 41.956 280.652 41.748 280.436C41.54 280.22 41.376 279.972 41.256 279.692C41.136 279.404 41.044 279.1 40.98 278.78C40.916 278.46 40.876 278.132 40.86 277.796C40.844 277.46 40.836 277.136 40.836 276.824Z" fill="#334155"/>
<path d="M55 277H655" stroke="#E2E8F0"/>
<path d="M26.9901 7.796H27.9501V11.588C27.9501 12.176 28.0701 12.62 28.3221 12.908C28.5741 13.196 28.9821 13.352 29.5461 13.352C29.9541 13.352 30.3261 13.184 30.6501 12.872C30.9861 12.536 31.1901 12.104 31.2621 11.576V7.796H32.2221V14H31.2621V13.04C30.7581 13.784 30.0861 14.168 29.2461 14.168C27.7341 14.168 26.9901 13.316 26.9901 11.636V7.796ZM36.6089 7.628C38.1449 7.628 38.9249 8.48 38.9249 10.184V14H37.9649V10.256C37.9649 9.044 37.4129 8.444 36.3329 8.444C35.9009 8.444 35.5289 8.6 35.2169 8.912C34.8809 9.248 34.7009 9.692 34.6649 10.256V14H33.7049V7.796H34.6649V8.708C34.8809 8.36 35.1569 8.096 35.4929 7.916C35.8289 7.724 36.2009 7.628 36.6089 7.628ZM41.2001 5.456C41.4041 5.456 41.5721 5.516 41.7161 5.66C41.8601 5.78 41.9321 5.948 41.9321 6.164C41.9321 6.368 41.8601 6.536 41.7161 6.68C41.5721 6.812 41.4041 6.884 41.2001 6.884C40.9961 6.884 40.8281 6.812 40.6841 6.68C40.5401 6.536 40.4801 6.368 40.4801 6.164C40.4801 5.948 40.5401 5.78 40.6841 5.66C40.8281 5.516 40.9961 5.456 41.2001 5.456ZM40.7201 7.796H41.6801V14H40.7201V7.796ZM45.1344 5.792V7.796H46.6704V8.6H45.1344V12.548C45.1344 12.776 45.1704 12.944 45.2664 13.04C45.3504 13.136 45.5064 13.196 45.7224 13.196H46.5144V14H45.5784C45.0744 14 44.7024 13.868 44.4864 13.604C44.2824 13.364 44.1864 13.016 44.1864 12.548V8.6H42.9384V7.796H44.1864V6.188L45.1344 5.792Z" fill="#334155"/>
<path d="M88.481 297H87.461V290.904H85.253V290.088C85.541 290.088 85.821 290.068 86.093 290.028C86.365 289.98 86.609 289.896 86.825 289.776C87.049 289.656 87.237 289.492 87.389 289.284C87.541 289.076 87.645 288.812 87.701 288.492H88.481V297Z" fill="#334155"/>
<path d="M134.081 291.504C134.057 291.072 134.101 290.672 134.213 290.304C134.325 289.936 134.497 289.62 134.729 289.356C134.969 289.084 135.265 288.872 135.617 288.72C135.969 288.568 136.369 288.492 136.817 288.492C137.185 288.492 137.529 288.548 137.849 288.66C138.177 288.764 138.461 288.92 138.701 289.128C138.941 289.328 139.129 289.58 139.265 289.884C139.409 290.188 139.481 290.54 139.481 290.94C139.481 291.316 139.421 291.648 139.301 291.936C139.189 292.224 139.037 292.484 138.845 292.716C138.653 292.94 138.433 293.144 138.185 293.328C137.937 293.512 137.681 293.688 137.417 293.856C137.153 294.016 136.889 294.176 136.625 294.336C136.361 294.488 136.117 294.652 135.893 294.828C135.677 295.004 135.489 295.196 135.329 295.404C135.177 295.604 135.077 295.836 135.029 296.1H139.397V297H133.841C133.881 296.496 133.969 296.068 134.105 295.716C134.249 295.356 134.429 295.044 134.645 294.78C134.861 294.516 135.105 294.284 135.377 294.084C135.649 293.884 135.933 293.696 136.229 293.52C136.589 293.296 136.905 293.092 137.177 292.908C137.449 292.716 137.673 292.524 137.849 292.332C138.033 292.14 138.169 291.932 138.257 291.708C138.353 291.484 138.401 291.224 138.401 290.928C138.401 290.696 138.357 290.488 138.269 290.304C138.181 290.112 138.061 289.948 137.909 289.812C137.765 289.676 137.593 289.572 137.393 289.5C137.193 289.428 136.981 289.392 136.757 289.392C136.461 289.392 136.205 289.456 135.989 289.584C135.781 289.704 135.609 289.864 135.473 290.064C135.337 290.264 135.237 290.492 135.173 290.748C135.117 290.996 135.093 291.248 135.101 291.504H134.081Z" fill="#334155"/>
<path d="M185.513 292.14C185.553 292.148 185.589 292.152 185.621 292.152C185.661 292.152 185.701 292.152 185.741 292.152H185.957C186.173 292.152 186.377 292.124 186.569 292.068C186.769 292.004 186.941 291.916 187.085 291.804C187.237 291.684 187.357 291.536 187.445 291.36C187.533 291.184 187.577 290.984 187.577 290.76C187.577 290.304 187.433 289.964 187.145 289.74C186.857 289.508 186.497 289.392 186.065 289.392C185.793 289.392 185.553 289.444 185.345 289.548C185.145 289.644 184.977 289.776 184.841 289.944C184.713 290.112 184.617 290.308 184.553 290.532C184.489 290.756 184.457 290.992 184.457 291.24H183.437C183.453 290.832 183.517 290.46 183.629 290.124C183.749 289.788 183.917 289.5 184.133 289.26C184.349 289.02 184.617 288.832 184.937 288.696C185.265 288.56 185.641 288.492 186.065 288.492C186.433 288.492 186.773 288.54 187.085 288.636C187.405 288.724 187.681 288.86 187.913 289.044C188.145 289.228 188.325 289.464 188.453 289.752C188.589 290.04 188.657 290.38 188.657 290.772C188.657 291.156 188.545 291.496 188.321 291.792C188.097 292.088 187.817 292.312 187.481 292.464V292.488C188.001 292.6 188.385 292.844 188.633 293.22C188.889 293.596 189.017 294.04 189.017 294.552C189.017 294.976 188.937 295.352 188.777 295.68C188.625 296 188.417 296.268 188.153 296.484C187.889 296.7 187.577 296.864 187.217 296.976C186.865 297.08 186.489 297.132 186.089 297.132C185.657 297.132 185.265 297.072 184.913 296.952C184.561 296.832 184.261 296.656 184.013 296.424C183.765 296.184 183.573 295.892 183.437 295.548C183.309 295.204 183.249 294.812 183.257 294.372H184.277C184.293 294.924 184.453 295.376 184.757 295.728C185.061 296.072 185.505 296.244 186.089 296.244C186.337 296.244 186.573 296.208 186.797 296.136C187.021 296.056 187.217 295.948 187.385 295.812C187.553 295.668 187.685 295.496 187.781 295.296C187.885 295.088 187.937 294.856 187.937 294.6C187.937 294.336 187.889 294.104 187.793 293.904C187.697 293.696 187.569 293.524 187.409 293.388C187.249 293.244 187.057 293.14 186.833 293.076C186.617 293.004 186.381 292.968 186.125 292.968C185.909 292.968 185.705 292.98 185.513 293.004V292.14Z" fill="#334155"/>
<path d="M236.309 294.108V289.944H236.285L233.453 294.108H236.309ZM237.269 294.108H238.421V295.008H237.269V297H236.309V295.008H232.577V294.024L236.453 288.492H237.269V294.108Z" fill="#334155"/>
<path d="M287.225 289.536H283.793L283.337 291.984L283.361 292.008C283.545 291.8 283.781 291.648 284.069 291.552C284.365 291.448 284.657 291.396 284.945 291.396C285.321 291.396 285.677 291.456 286.013 291.576C286.349 291.696 286.641 291.88 286.889 292.128C287.137 292.368 287.333 292.672 287.477 293.04C287.621 293.4 287.693 293.824 287.693 294.312C287.693 294.672 287.629 295.024 287.501 295.368C287.381 295.704 287.197 296.004 286.949 296.268C286.701 296.532 286.389 296.744 286.013 296.904C285.645 297.056 285.213 297.132 284.717 297.132C284.349 297.132 284.001 297.08 283.673 296.976C283.353 296.864 283.069 296.708 282.821 296.508C282.573 296.3 282.377 296.044 282.233 295.74C282.089 295.436 282.013 295.092 282.005 294.708H283.025C283.041 294.924 283.093 295.128 283.181 295.32C283.277 295.504 283.401 295.668 283.553 295.812C283.713 295.948 283.897 296.056 284.105 296.136C284.321 296.208 284.557 296.244 284.813 296.244C285.053 296.244 285.281 296.204 285.497 296.124C285.721 296.036 285.913 295.908 286.073 295.74C286.241 295.572 286.373 295.364 286.469 295.116C286.565 294.86 286.613 294.564 286.613 294.228C286.613 293.948 286.565 293.692 286.469 293.46C286.381 293.22 286.253 293.016 286.085 292.848C285.917 292.672 285.713 292.536 285.473 292.44C285.241 292.344 284.981 292.296 284.693 292.296C284.357 292.296 284.057 292.372 283.793 292.524C283.537 292.668 283.309 292.86 283.109 293.1L282.233 293.052L283.025 288.636H287.225V289.536Z" fill="#334155"/>
<path d="M335.898 290.664C335.85 290.28 335.702 289.972 335.454 289.74C335.206 289.508 334.878 289.392 334.47 289.392C334.038 289.392 333.69 289.5 333.426 289.716C333.162 289.924 332.954 290.192 332.802 290.52C332.658 290.84 332.558 291.188 332.502 291.564C332.446 291.94 332.414 292.292 332.406 292.62L332.43 292.644C332.67 292.252 332.966 291.968 333.318 291.792C333.678 291.616 334.09 291.528 334.554 291.528C334.962 291.528 335.326 291.6 335.646 291.744C335.974 291.88 336.246 292.072 336.462 292.32C336.686 292.568 336.858 292.86 336.978 293.196C337.098 293.532 337.158 293.896 337.158 294.288C337.158 294.6 337.11 294.924 337.014 295.26C336.918 295.596 336.758 295.904 336.534 296.184C336.318 296.456 336.026 296.684 335.658 296.868C335.298 297.044 334.85 297.132 334.314 297.132C333.682 297.132 333.174 297.004 332.79 296.748C332.406 296.492 332.11 296.164 331.902 295.764C331.694 295.364 331.554 294.924 331.482 294.444C331.418 293.964 331.386 293.5 331.386 293.052C331.386 292.468 331.434 291.904 331.53 291.36C331.634 290.808 331.806 290.32 332.046 289.896C332.286 289.472 332.606 289.132 333.006 288.876C333.406 288.62 333.91 288.492 334.518 288.492C335.222 288.492 335.782 288.68 336.198 289.056C336.614 289.424 336.854 289.96 336.918 290.664H335.898ZM334.362 292.428C334.074 292.428 333.822 292.48 333.606 292.584C333.39 292.68 333.206 292.816 333.054 292.992C332.902 293.16 332.786 293.364 332.706 293.604C332.634 293.836 332.598 294.084 332.598 294.348C332.598 294.612 332.638 294.86 332.718 295.092C332.798 295.324 332.91 295.524 333.054 295.692C333.206 295.86 333.39 295.996 333.606 296.1C333.83 296.196 334.082 296.244 334.362 296.244C334.642 296.244 334.886 296.196 335.094 296.1C335.31 295.996 335.49 295.856 335.634 295.68C335.778 295.504 335.886 295.304 335.958 295.08C336.038 294.848 336.078 294.608 336.078 294.36C336.078 294.096 336.042 293.848 335.97 293.616C335.906 293.376 335.802 293.172 335.658 293.004C335.514 292.828 335.334 292.688 335.118 292.584C334.902 292.48 334.65 292.428 334.362 292.428Z" fill="#334155"/>
<path d="M386.381 289.512C385.949 289.936 385.545 290.44 385.169 291.024C384.793 291.608 384.457 292.232 384.161 292.896C383.873 293.56 383.637 294.244 383.453 294.948C383.269 295.652 383.157 296.336 383.117 297H381.977C382.025 296.28 382.141 295.58 382.325 294.9C382.517 294.212 382.761 293.556 383.057 292.932C383.353 292.3 383.693 291.704 384.077 291.144C384.469 290.584 384.889 290.068 385.337 289.596H380.873V288.636H386.381V289.512Z" fill="#334155"/>
<path d="M431.477 290.7C431.477 290.932 431.517 291.136 431.597 291.312C431.677 291.48 431.785 291.62 431.921 291.732C432.057 291.844 432.217 291.928 432.401 291.984C432.585 292.04 432.781 292.068 432.989 292.068C433.397 292.068 433.733 291.948 433.997 291.708C434.261 291.468 434.393 291.132 434.393 290.7C434.393 290.268 434.257 289.944 433.985 289.728C433.721 289.504 433.381 289.392 432.965 289.392C432.765 289.392 432.573 289.42 432.389 289.476C432.205 289.532 432.045 289.616 431.909 289.728C431.781 289.84 431.677 289.976 431.597 290.136C431.517 290.296 431.477 290.484 431.477 290.7ZM430.397 290.664C430.397 290.312 430.465 290.004 430.601 289.74C430.737 289.468 430.921 289.24 431.153 289.056C431.385 288.872 431.649 288.732 431.945 288.636C432.249 288.54 432.565 288.492 432.893 288.492C433.357 288.492 433.753 288.556 434.081 288.684C434.409 288.804 434.673 288.968 434.873 289.176C435.081 289.376 435.233 289.608 435.329 289.872C435.425 290.128 435.473 290.392 435.473 290.664C435.473 291.048 435.365 291.4 435.149 291.72C434.941 292.032 434.657 292.268 434.297 292.428C434.809 292.588 435.189 292.852 435.437 293.22C435.685 293.58 435.809 294.024 435.809 294.552C435.809 294.968 435.733 295.336 435.581 295.656C435.437 295.976 435.237 296.248 434.981 296.472C434.733 296.688 434.437 296.852 434.093 296.964C433.749 297.076 433.381 297.132 432.989 297.132C432.581 297.132 432.201 297.08 431.849 296.976C431.497 296.872 431.189 296.712 430.925 296.496C430.669 296.28 430.465 296.012 430.313 295.692C430.169 295.364 430.097 294.984 430.097 294.552C430.097 294.048 430.225 293.612 430.481 293.244C430.737 292.868 431.105 292.596 431.585 292.428C431.225 292.284 430.937 292.052 430.721 291.732C430.505 291.404 430.397 291.048 430.397 290.664ZM431.177 294.6C431.177 295.112 431.345 295.516 431.681 295.812C432.025 296.1 432.461 296.244 432.989 296.244C433.245 296.244 433.477 296.204 433.685 296.124C433.901 296.036 434.085 295.92 434.237 295.776C434.397 295.624 434.517 295.448 434.597 295.248C434.685 295.048 434.729 294.828 434.729 294.588C434.729 294.356 434.681 294.144 434.585 293.952C434.497 293.752 434.373 293.58 434.213 293.436C434.053 293.292 433.865 293.18 433.649 293.1C433.441 293.012 433.217 292.968 432.977 292.968C432.729 292.968 432.493 293.008 432.269 293.088C432.053 293.16 431.861 293.268 431.693 293.412C431.533 293.556 431.405 293.728 431.309 293.928C431.221 294.128 431.177 294.352 431.177 294.6Z" fill="#334155"/>
<path d="M480.57 294.948C480.61 295.364 480.778 295.684 481.074 295.908C481.37 296.132 481.722 296.244 482.13 296.244C482.754 296.244 483.222 295.976 483.534 295.44C483.846 294.896 484.018 294.068 484.05 292.956L484.026 292.932C483.834 293.292 483.562 293.58 483.21 293.796C482.858 294.004 482.474 294.108 482.058 294.108C481.626 294.108 481.242 294.04 480.906 293.904C480.57 293.76 480.286 293.564 480.054 293.316C479.83 293.068 479.658 292.768 479.538 292.416C479.426 292.064 479.37 291.68 479.37 291.264C479.37 290.856 479.438 290.484 479.574 290.148C479.71 289.804 479.902 289.512 480.15 289.272C480.398 289.024 480.694 288.832 481.038 288.696C481.382 288.56 481.758 288.492 482.166 288.492C482.566 288.492 482.942 288.556 483.294 288.684C483.646 288.804 483.954 289.016 484.218 289.32C484.482 289.624 484.69 290.04 484.842 290.568C485.002 291.088 485.082 291.752 485.082 292.56C485.082 294.032 484.846 295.164 484.374 295.956C483.91 296.74 483.162 297.132 482.13 297.132C481.418 297.132 480.826 296.952 480.354 296.592C479.882 296.232 479.614 295.684 479.55 294.948H480.57ZM483.87 291.336C483.87 291.072 483.83 290.824 483.75 290.592C483.678 290.36 483.566 290.156 483.414 289.98C483.27 289.796 483.09 289.652 482.874 289.548C482.658 289.444 482.406 289.392 482.118 289.392C481.814 289.392 481.554 289.448 481.338 289.56C481.13 289.672 480.958 289.824 480.822 290.016C480.694 290.2 480.598 290.412 480.534 290.652C480.478 290.892 480.45 291.144 480.45 291.408C480.45 291.64 480.49 291.864 480.57 292.08C480.658 292.296 480.774 292.488 480.918 292.656C481.07 292.824 481.246 292.96 481.446 293.064C481.654 293.16 481.882 293.208 482.13 293.208C482.394 293.208 482.634 293.16 482.85 293.064C483.066 292.96 483.25 292.824 483.402 292.656C483.554 292.48 483.67 292.28 483.75 292.056C483.83 291.824 483.87 291.584 483.87 291.336Z" fill="#334155"/>
<path d="M529.244 297H528.224V290.904H526.016V290.088C526.304 290.088 526.584 290.068 526.856 290.028C527.128 289.98 527.372 289.896 527.588 289.776C527.812 289.656 528 289.492 528.152 289.284C528.304 289.076 528.408 288.812 528.464 288.492H529.244V297ZM533.224 292.812C533.224 293.132 533.232 293.492 533.248 293.892C533.272 294.284 533.336 294.656 533.44 295.008C533.552 295.352 533.728 295.644 533.968 295.884C534.208 296.124 534.544 296.244 534.976 296.244C535.408 296.244 535.744 296.124 535.984 295.884C536.224 295.644 536.396 295.352 536.5 295.008C536.612 294.656 536.676 294.284 536.692 293.892C536.716 293.492 536.728 293.132 536.728 292.812C536.728 292.604 536.724 292.376 536.716 292.128C536.716 291.872 536.696 291.62 536.656 291.372C536.624 291.116 536.572 290.868 536.5 290.628C536.436 290.388 536.336 290.18 536.2 290.004C536.072 289.82 535.908 289.672 535.708 289.56C535.508 289.448 535.264 289.392 534.976 289.392C534.688 289.392 534.444 289.448 534.244 289.56C534.044 289.672 533.876 289.82 533.74 290.004C533.612 290.18 533.512 290.388 533.44 290.628C533.376 290.868 533.324 291.116 533.284 291.372C533.252 291.62 533.232 291.872 533.224 292.128C533.224 292.376 533.224 292.604 533.224 292.812ZM532.144 292.824C532.144 292.512 532.152 292.188 532.168 291.852C532.184 291.516 532.224 291.188 532.288 290.868C532.352 290.548 532.444 290.244 532.564 289.956C532.684 289.668 532.848 289.416 533.056 289.2C533.264 288.984 533.524 288.812 533.836 288.684C534.156 288.556 534.536 288.492 534.976 288.492C535.416 288.492 535.792 288.556 536.104 288.684C536.424 288.812 536.688 288.984 536.896 289.2C537.104 289.416 537.268 289.668 537.388 289.956C537.508 290.244 537.6 290.548 537.664 290.868C537.728 291.188 537.768 291.516 537.784 291.852C537.8 292.188 537.808 292.512 537.808 292.824C537.808 293.136 537.8 293.46 537.784 293.796C537.768 294.132 537.728 294.46 537.664 294.78C537.6 295.1 537.508 295.404 537.388 295.692C537.268 295.972 537.104 296.22 536.896 296.436C536.688 296.652 536.428 296.824 536.116 296.952C535.804 297.072 535.424 297.132 534.976 297.132C534.536 297.132 534.156 297.072 533.836 296.952C533.524 296.824 533.264 296.652 533.056 296.436C532.848 296.22 532.684 295.972 532.564 295.692C532.444 295.404 532.352 295.1 532.288 294.78C532.224 294.46 532.184 294.132 532.168 293.796C532.152 293.46 532.144 293.136 532.144 292.824Z" fill="#334155"/>
<path d="M578.588 297H577.568V290.904H575.36V290.088C575.648 290.088 575.928 290.068 576.2 290.028C576.472 289.98 576.716 289.896 576.932 289.776C577.156 289.656 577.344 289.492 577.496 289.284C577.648 289.076 577.752 288.812 577.808 288.492H578.588V297ZM585.256 297H584.236V290.904H582.028V290.088C582.316 290.088 582.596 290.068 582.868 290.028C583.14 289.98 583.384 289.896 583.6 289.776C583.824 289.656 584.012 289.492 584.164 289.284C584.316 289.076 584.42 288.812 584.476 288.492H585.256V297Z" fill="#334155"/>
<path d="M627.932 297H626.912V290.904H624.704V290.088C624.992 290.088 625.272 290.068 625.544 290.028C625.816 289.98 626.06 289.896 626.276 289.776C626.5 289.656 626.688 289.492 626.84 289.284C626.992 289.076 627.096 288.812 627.152 288.492H627.932V297ZM630.856 291.504C630.832 291.072 630.876 290.672 630.988 290.304C631.1 289.936 631.272 289.62 631.504 289.356C631.744 289.084 632.04 288.872 632.392 288.72C632.744 288.568 633.144 288.492 633.592 288.492C633.96 288.492 634.304 288.548 634.624 288.66C634.952 288.764 635.236 288.92 635.476 289.128C635.716 289.328 635.904 289.58 636.04 289.884C636.184 290.188 636.256 290.54 636.256 290.94C636.256 291.316 636.196 291.648 636.076 291.936C635.964 292.224 635.812 292.484 635.62 292.716C635.428 292.94 635.208 293.144 634.96 293.328C634.712 293.512 634.456 293.688 634.192 293.856C633.928 294.016 633.664 294.176 633.4 294.336C633.136 294.488 632.892 294.652 632.668 294.828C632.452 295.004 632.264 295.196 632.104 295.404C631.952 295.604 631.852 295.836 631.804 296.1H636.172V297H630.616C630.656 296.496 630.744 296.068 630.88 295.716C631.024 295.356 631.204 295.044 631.42 294.78C631.636 294.516 631.88 294.284 632.152 294.084C632.424 293.884 632.708 293.696 633.004 293.52C633.364 293.296 633.68 293.092 633.952 292.908C634.224 292.716 634.448 292.524 634.624 292.332C634.808 292.14 634.944 291.932 635.032 291.708C635.128 291.484 635.176 291.224 635.176 290.928C635.176 290.696 635.132 290.488 635.044 290.304C634.956 290.112 634.836 289.948 634.684 289.812C634.54 289.676 634.368 289.572 634.168 289.5C633.968 289.428 633.756 289.392 633.532 289.392C633.236 289.392 632.98 289.456 632.764 289.584C632.556 289.704 632.384 289.864 632.248 290.064C632.112 290.264 632.012 290.492 631.948 290.748C631.892 290.996 631.868 291.248 631.876 291.504H630.856Z" fill="#334155"/>
<path d="M629.852 275.5V37L577.269 59.3419L526.972 121.899L473.246 106.26L422.949 168.552L379.511 194.511L326.928 189.484H282.919L234.908 227.465L182.897 249.248L135.458 262.653L86.876 275.5H629.852Z" fill="url(#paint0_linear_972_3033)"/>
<path d="M86.876 275.5L137.744 261.536L181.754 249.807L234.337 227.465L282.919 189.389H326.357L380.083 194.511L422.378 168.803L473.818 105.537L526.972 122.458L577.269 60.0968L629.852 37" stroke="#3B82F6" stroke-width="2" stroke-linejoin="round"/>
<path d="M629.852 275.5V85L577.269 102.845L526.972 152.813L473.246 140.321L422.949 190.076L379.511 210.81L326.928 206.795H282.919L234.908 237.132L182.897 254.532L135.458 265.239L86.876 275.5H629.852Z" fill="url(#paint1_linear_972_3033)"/>
<path d="M86.876 275.5L137.744 264.347L181.754 254.978L234.337 237.132L282.919 206.719H326.357L380.083 210.81L422.378 190.276L473.818 139.744L526.972 153.259L577.269 103.448L629.852 85" stroke="#22C55E" stroke-width="2" stroke-linejoin="round"/>
<path d="M629.852 275.5V229L577.269 233.356L526.972 245.553L473.246 242.504L422.949 254.648L379.511 259.71L326.928 258.73H282.919L234.908 266.135L182.897 270.382L135.458 272.995L86.876 275.5H629.852Z" fill="url(#paint2_linear_972_3033)"/>
<path d="M86.876 275.5L137.744 272.778L181.754 270.491L234.337 266.135L282.919 258.711H326.357L380.083 259.71L422.378 254.697L473.818 242.363L526.972 245.662L577.269 233.503L629.852 229" stroke="#EAB308" stroke-width="2" stroke-linejoin="round"/>
<defs>
<linearGradient id="paint0_linear_972_3033" x1="358.364" y1="37" x2="358.364" y2="275.5" gradientUnits="userSpaceOnUse">
<stop stop-color="#165DFF" stop-opacity="0.2"/>
<stop offset="1" stop-color="#165DFF" stop-opacity="0"/>
</linearGradient>
<linearGradient id="paint1_linear_972_3033" x1="311.496" y1="-141" x2="347.445" y2="276.44" gradientUnits="userSpaceOnUse">
<stop stop-color="#27AE60"/>
<stop offset="1" stop-color="#27AE60" stop-opacity="0"/>
</linearGradient>
<linearGradient id="paint2_linear_972_3033" x1="311.496" y1="173.835" x2="313.653" y2="276.44" gradientUnits="userSpaceOnUse">
<stop stop-color="#F2C94C"/>
<stop offset="1" stop-color="#F2C94C" stop-opacity="0"/>
</linearGradient>
</defs>
</svg>
